# xmcd
#
# Track frame offsets:
#	150
#	19131
#	34869
#	53599
#	67667
#	83341
#	101183
#	115890
#	131085
#	150456
#	166436
#	182837
#
# Disc length: 2643 seconds
#
# Revision: 1
# Processed by: cddbd v1.5.2PL0 Copyright (c) Steve Scherf et al.
# Submitted via: EasyCDDAExtractor 16.1.0.1
#
DISCID=900a510c
DTITLE=Various Artist - Country Hits: The Original Masters
DYEAR=2005
DGENRE=Country
TTITLE0=George Strait
TTITLE1=Toby Keith
TTITLE2=Lee Ann Womack
TTITLE3=Vince Gill
TTITLE4=Reba McEntire
TTITLE5=Mark Chesnutt
TTITLE6=Chely Wright
TTITLE7=Sammy Kershaw
TTITLE8=Gary Allan
TTITLE9=Terri Clark
TTITLE10=Darryl Worley
TTITLE11=Tracy Byrd
EXTD=YEAR: 2005
EXTT0=
EXTT1=
EXTT2=
EXTT3=
EXTT4=
EXTT5=
EXTT6=
EXTT7=
EXTT8=
EXTT9=
EXTT10=
EXTT11=
PLAYORDER=
